{"title":"WWE.Raw.05.09.11.x264.400MB","uid":6382483,"size":360423724,"categoryP":"video","categoryS":"tv_shows","magnet":"?xt=urn:btih:986fc5eb2311cfaba808459102b436314a7e82ce&amp;dn=WWE.Raw.05.09.11.x264.400MB&amp;tr=udp%3A%2F%2Ftracker.openbittorrent.com%3A80&amp;tr=udp%3A%2F%2Fopen.demonii.com%3A1337&amp;tr=udp%3A%2F%2Ftracker.coppersurfer.tk%3A6969&amp;tr=udp%3A%2F%2Fexodus.desync.com%3A6969","seeders":0,"leechers":1,"uploader":"scene4all","files":-1,"time":1305078125,"description":"--------------------------------------------------------------------------------\n                                                                                \n           SSSSSSSSSSSSSSS       444444444                 AAA                  \n         SS:::::::::::::::S     4::::::::4                A:::A                 \n        S:::::SSSSSS::::::S    4:::::::::4               A:::::A                \n        S:::::S     SSSSSSS   4::::44::::4              A:::::::A               \n        S:::::S              4::::4 4::::4             A:::::::::A              \n        S:::::S             4::::4  4::::4            A:::::A:::::A             \n         S::::SSSS         4::::4   4::::4           A:::::A A:::::A            \n          SS::::::SSSSS   4::::444444::::444        A:::::A   A:::::A           \n            SSS::::::::SS 4::::::::::::::::4       A:::::A     A:::::A          \n               SSSSSS::::S4444444444:::::444      A:::::AAAAAAAAA:::::A         \n                    S:::::S         4::::4       A:::::::::::::::::::::A        \n                    S:::::S         4::::4      A:::::AAAAAAAAAAAAA:::::A       \n        SSSSSSS     S:::::S         4::::4     A:::::A             A:::::A      \n        S::::::SSSSSS:::::S       44::::::44  A:::::A               A:::::A     \n        S:::::::::::::::SS        4::::::::4 A:::::A                 A:::::A    \n         SSSSSSSSSSSSSSS          4444444444AAAAAAA                   AAAAAAA   \n                                                                                \n                                                                                \n---------------------------------------------------------------------------------\n\n                          WWE.Raw.05.09.11.x264.400MB                            \n\n---------------------------------------------------------------------------------\n\nDuration: 01:33:41.20, start: 0.000000, bitrate: N/A\nStream #0.0: Video: h264, yuv420p, 640x352, PAR 1:1 DAR 20:11, 25 fps, 25 tbr,\n1k tbn, 50 tbc\nStream #0.1(eng): Audio: aac, 48000 Hz, stereo, s16\nAt least one output file must be specified\n\n---------------------------------------------------------------------------------","torrent":{"xt":"urn:btih:986fc5eb2311cfaba808459102b436314a7e82ce","amp;dn":"WWE.Raw.05.09.11.x264.400MB","amp;tr":["udp%3A%2F%2Ftracker.openbittorrent.com%3A80","udp%3A%2F%2Fopen.demonii.com%3A1337","udp%3A%2F%2Ftracker.coppersurfer.tk%3A6969","udp%3A%2F%2Fexodus.desync.com%3A6969"],"infoHash":"986fc5eb2311cfaba808459102b436314a7e82ce","infoHashBuffer":{"type":"Buffer","data":[152,111,197,235,35,17,207,171,168,8,69,145,2,180,54,49,74,126,130,206]},"announce":[],"urlList":[]}}